<mxfile host="Electron" modified="2024-01-29T23:03:08.246Z" agent="Mozilla/5.0 (Macintosh; Intel Mac OS X 10_15_7) AppleWebKit/537.36 (KHTML, like Gecko) draw.io/23.0.2 Chrome/120.0.6099.109 Electron/28.1.0 Safari/537.36" etag="3y8FUjg3If4pp_8Hi5PA" version="23.0.2" type="device">
  <diagram name="Page-1" id="Cj38AHBcmiozmH7kRmap">
    <mxGraphModel dx="1810" dy="920" grid="0" gridSize="10" guides="1" tooltips="1" connect="1" arrows="1" fold="1" page="1" pageScale="1" pageWidth="1100" pageHeight="850" math="0" shadow="0">
      <root>
        <mxCell id="0" />
        <mxCell id="1" parent="0" />
        <mxCell id="_niTbIR7iQNk0cs9QvaE-1" value="Region" style="points=[[0,0],[0.25,0],[0.5,0],[0.75,0],[1,0],[1,0.25],[1,0.5],[1,0.75],[1,1],[0.75,1],[0.5,1],[0.25,1],[0,1],[0,0.75],[0,0.5],[0,0.25]];outlineConnect=0;gradientColor=none;html=1;whiteSpace=wrap;fontSize=12;fontStyle=0;container=1;pointerEvents=0;collapsible=0;recursiveResize=0;shape=mxgraph.aws4.group;grIcon=mxgraph.aws4.group_region;strokeColor=#00A4A6;fillColor=none;verticalAlign=top;align=left;spacingLeft=30;fontColor=#147EBA;dashed=1;" vertex="1" parent="1">
          <mxGeometry x="138" y="251" width="340" height="270" as="geometry" />
        </mxCell>
        <mxCell id="_niTbIR7iQNk0cs9QvaE-7" style="edgeStyle=orthogonalEdgeStyle;rounded=0;orthogonalLoop=1;jettySize=auto;html=1;endArrow=blockThin;endFill=1;" edge="1" parent="_niTbIR7iQNk0cs9QvaE-1" source="_niTbIR7iQNk0cs9QvaE-3" target="_niTbIR7iQNk0cs9QvaE-4">
          <mxGeometry relative="1" as="geometry">
            <Array as="points">
              <mxPoint x="163" y="162" />
              <mxPoint x="163" y="162" />
            </Array>
          </mxGeometry>
        </mxCell>
        <mxCell id="_niTbIR7iQNk0cs9QvaE-3" value="" style="outlineConnect=0;dashed=0;verticalLabelPosition=bottom;verticalAlign=top;align=center;html=1;shape=mxgraph.aws3.volume;fillColor=#E05243;gradientColor=none;" vertex="1" parent="_niTbIR7iQNk0cs9QvaE-1">
          <mxGeometry x="137" y="71" width="52.5" height="75" as="geometry" />
        </mxCell>
        <mxCell id="_niTbIR7iQNk0cs9QvaE-4" value="" style="sketch=0;outlineConnect=0;fontColor=#232F3E;gradientColor=none;fillColor=#7AA116;strokeColor=none;dashed=0;verticalLabelPosition=bottom;verticalAlign=top;align=center;html=1;fontSize=12;fontStyle=0;aspect=fixed;pointerEvents=1;shape=mxgraph.aws4.snapshot;" vertex="1" parent="_niTbIR7iQNk0cs9QvaE-1">
          <mxGeometry x="143.15" y="190" width="40.21" height="56" as="geometry" />
        </mxCell>
        <mxCell id="_niTbIR7iQNk0cs9QvaE-8" value="EBS Volume&lt;br&gt;Encrypted with KMS" style="text;html=1;strokeColor=none;fillColor=none;align=center;verticalAlign=middle;whiteSpace=wrap;rounded=0;fontFamily=Verdana;" vertex="1" parent="_niTbIR7iQNk0cs9QvaE-1">
          <mxGeometry x="6" y="84" width="131" height="55" as="geometry" />
        </mxCell>
        <mxCell id="_niTbIR7iQNk0cs9QvaE-9" value="EBS Snapshot&lt;br&gt;Encrypted with KMS" style="text;html=1;strokeColor=none;fillColor=none;align=center;verticalAlign=middle;whiteSpace=wrap;rounded=0;fontFamily=Verdana;" vertex="1" parent="_niTbIR7iQNk0cs9QvaE-1">
          <mxGeometry x="6" y="191" width="131" height="55" as="geometry" />
        </mxCell>
        <mxCell id="_niTbIR7iQNk0cs9QvaE-15" value="" style="sketch=0;pointerEvents=1;shadow=0;dashed=0;html=1;strokeColor=none;labelPosition=center;verticalLabelPosition=bottom;verticalAlign=top;outlineConnect=0;align=center;shape=mxgraph.office.security.key_permissions;fillColor=#DA4026;" vertex="1" parent="_niTbIR7iQNk0cs9QvaE-1">
          <mxGeometry x="210" y="78" width="25" height="53" as="geometry" />
        </mxCell>
        <mxCell id="_niTbIR7iQNk0cs9QvaE-16" value="KMS Key A" style="text;html=1;strokeColor=none;fillColor=none;align=center;verticalAlign=middle;whiteSpace=wrap;rounded=0;fontFamily=Verdana;" vertex="1" parent="_niTbIR7iQNk0cs9QvaE-1">
          <mxGeometry x="222" y="104" width="88" height="30" as="geometry" />
        </mxCell>
        <mxCell id="_niTbIR7iQNk0cs9QvaE-17" value="" style="sketch=0;pointerEvents=1;shadow=0;dashed=0;html=1;strokeColor=none;labelPosition=center;verticalLabelPosition=bottom;verticalAlign=top;outlineConnect=0;align=center;shape=mxgraph.office.security.key_permissions;fillColor=#DA4026;" vertex="1" parent="_niTbIR7iQNk0cs9QvaE-1">
          <mxGeometry x="208" y="191" width="25" height="53" as="geometry" />
        </mxCell>
        <mxCell id="_niTbIR7iQNk0cs9QvaE-18" value="KMS Key A" style="text;html=1;strokeColor=none;fillColor=none;align=center;verticalAlign=middle;whiteSpace=wrap;rounded=0;fontFamily=Verdana;" vertex="1" parent="_niTbIR7iQNk0cs9QvaE-1">
          <mxGeometry x="220" y="217" width="88" height="30" as="geometry" />
        </mxCell>
        <mxCell id="_niTbIR7iQNk0cs9QvaE-2" value="Region" style="points=[[0,0],[0.25,0],[0.5,0],[0.75,0],[1,0],[1,0.25],[1,0.5],[1,0.75],[1,1],[0.75,1],[0.5,1],[0.25,1],[0,1],[0,0.75],[0,0.5],[0,0.25]];outlineConnect=0;gradientColor=none;html=1;whiteSpace=wrap;fontSize=12;fontStyle=0;container=1;pointerEvents=0;collapsible=0;recursiveResize=0;shape=mxgraph.aws4.group;grIcon=mxgraph.aws4.group_region;strokeColor=#00A4A6;fillColor=none;verticalAlign=top;align=left;spacingLeft=30;fontColor=#147EBA;dashed=1;" vertex="1" parent="1">
          <mxGeometry x="635" y="251" width="340" height="270" as="geometry" />
        </mxCell>
        <mxCell id="_niTbIR7iQNk0cs9QvaE-14" style="edgeStyle=orthogonalEdgeStyle;rounded=0;orthogonalLoop=1;jettySize=auto;html=1;endArrow=blockThin;endFill=1;" edge="1" parent="_niTbIR7iQNk0cs9QvaE-2" source="_niTbIR7iQNk0cs9QvaE-5" target="_niTbIR7iQNk0cs9QvaE-6">
          <mxGeometry relative="1" as="geometry" />
        </mxCell>
        <mxCell id="_niTbIR7iQNk0cs9QvaE-5" value="" style="sketch=0;outlineConnect=0;fontColor=#232F3E;gradientColor=none;fillColor=#7AA116;strokeColor=none;dashed=0;verticalLabelPosition=bottom;verticalAlign=top;align=center;html=1;fontSize=12;fontStyle=0;aspect=fixed;pointerEvents=1;shape=mxgraph.aws4.snapshot;" vertex="1" parent="_niTbIR7iQNk0cs9QvaE-2">
          <mxGeometry x="162" y="183" width="40.21" height="56" as="geometry" />
        </mxCell>
        <mxCell id="_niTbIR7iQNk0cs9QvaE-6" value="" style="outlineConnect=0;dashed=0;verticalLabelPosition=bottom;verticalAlign=top;align=center;html=1;shape=mxgraph.aws3.volume;fillColor=#E05243;gradientColor=none;" vertex="1" parent="_niTbIR7iQNk0cs9QvaE-2">
          <mxGeometry x="155" y="55" width="52.5" height="75" as="geometry" />
        </mxCell>
        <mxCell id="_niTbIR7iQNk0cs9QvaE-12" value="EBS Volume&lt;br&gt;Encrypted with KMS" style="text;html=1;strokeColor=none;fillColor=none;align=center;verticalAlign=middle;whiteSpace=wrap;rounded=0;fontFamily=Verdana;" vertex="1" parent="_niTbIR7iQNk0cs9QvaE-2">
          <mxGeometry x="19" y="65" width="131" height="55" as="geometry" />
        </mxCell>
        <mxCell id="_niTbIR7iQNk0cs9QvaE-13" value="EBS Snapshot&lt;br&gt;Encrypted With KMS" style="text;html=1;strokeColor=none;fillColor=none;align=center;verticalAlign=middle;whiteSpace=wrap;rounded=0;fontFamily=Verdana;" vertex="1" parent="_niTbIR7iQNk0cs9QvaE-2">
          <mxGeometry x="22" y="187" width="131" height="55" as="geometry" />
        </mxCell>
        <mxCell id="_niTbIR7iQNk0cs9QvaE-19" value="" style="sketch=0;pointerEvents=1;shadow=0;dashed=0;html=1;strokeColor=none;labelPosition=center;verticalLabelPosition=bottom;verticalAlign=top;outlineConnect=0;align=center;shape=mxgraph.office.security.key_permissions;fillColor=#DA4026;" vertex="1" parent="_niTbIR7iQNk0cs9QvaE-2">
          <mxGeometry x="227" y="65" width="25" height="53" as="geometry" />
        </mxCell>
        <mxCell id="_niTbIR7iQNk0cs9QvaE-20" value="KMS Key B" style="text;html=1;strokeColor=none;fillColor=none;align=center;verticalAlign=middle;whiteSpace=wrap;rounded=0;fontFamily=Verdana;" vertex="1" parent="_niTbIR7iQNk0cs9QvaE-2">
          <mxGeometry x="239" y="91" width="88" height="30" as="geometry" />
        </mxCell>
        <mxCell id="_niTbIR7iQNk0cs9QvaE-21" value="" style="sketch=0;pointerEvents=1;shadow=0;dashed=0;html=1;strokeColor=none;labelPosition=center;verticalLabelPosition=bottom;verticalAlign=top;outlineConnect=0;align=center;shape=mxgraph.office.security.key_permissions;fillColor=#DA4026;" vertex="1" parent="_niTbIR7iQNk0cs9QvaE-2">
          <mxGeometry x="224" y="183" width="25" height="53" as="geometry" />
        </mxCell>
        <mxCell id="_niTbIR7iQNk0cs9QvaE-22" value="KMS Key B" style="text;html=1;strokeColor=none;fillColor=none;align=center;verticalAlign=middle;whiteSpace=wrap;rounded=0;fontFamily=Verdana;" vertex="1" parent="_niTbIR7iQNk0cs9QvaE-2">
          <mxGeometry x="236" y="209" width="88" height="30" as="geometry" />
        </mxCell>
        <mxCell id="_niTbIR7iQNk0cs9QvaE-10" style="edgeStyle=orthogonalEdgeStyle;rounded=0;orthogonalLoop=1;jettySize=auto;html=1;endArrow=blockThin;endFill=1;" edge="1" parent="1" source="_niTbIR7iQNk0cs9QvaE-4" target="_niTbIR7iQNk0cs9QvaE-5">
          <mxGeometry relative="1" as="geometry">
            <Array as="points">
              <mxPoint x="301" y="589" />
              <mxPoint x="817" y="589" />
            </Array>
          </mxGeometry>
        </mxCell>
        <mxCell id="_niTbIR7iQNk0cs9QvaE-23" value="Copying Snapshots across Regions" style="text;html=1;strokeColor=none;fillColor=none;align=center;verticalAlign=middle;whiteSpace=wrap;rounded=0;fontSize=15;fontStyle=1" vertex="1" parent="1">
          <mxGeometry x="399" y="184" width="288" height="46" as="geometry" />
        </mxCell>
      </root>
    </mxGraphModel>
  </diagram>
</mxfile>
